<svg width="141" height="33" viewBox="0 0 141 33" fill="none" xmlns="http://www.w3.org/2000/svg">
<path fill-rule="evenodd" clip-rule="evenodd" d="M104.161 9.39254V25.9939H109.387V9.39254H104.161ZM104.741 5.91904C105.287 6.4652 105.972 6.73829 106.791 6.73829C107.612 6.73829 108.284 6.4652 108.807 5.91904C109.33 5.34982 109.593 4.68838 109.593 3.86914C109.593 3.04989 109.33 2.36541 108.807 1.81925C108.282 1.27308 107.61 1 106.791 1C105.972 1 105.287 1.27308 104.741 1.81925C104.218 2.36541 103.956 3.07117 103.956 3.86914C103.956 4.66712 104.218 5.34982 104.741 5.91904ZM77.312 16.5335V25.9957L77.3085 25.9974H82.5342V15.3738C82.5342 14.1219 82.2613 13.0295 81.715 12.095C81.192 11.1392 80.44 10.398 79.4613 9.87488C78.4824 9.32872 77.321 9.05563 76.0459 9.05563C74.7709 9.05563 73.6432 9.32872 72.6643 9.87488C72.2638 10.0885 71.8998 10.3403 71.572 10.63V1.19475H66.3462V25.9957H71.572V16.5353C71.572 15.966 71.6979 15.4642 71.9478 15.0315C72.1979 14.5758 72.5402 14.2336 72.9728 14.0066C73.4056 13.7566 73.9074 13.6307 74.4766 13.6307C75.2976 13.6307 75.9698 13.9037 76.4928 14.4499C77.039 14.973 77.312 15.6681 77.312 16.5335ZM58.452 26.3717C56.7443 26.3717 55.1963 25.9957 53.8061 25.2438C52.4158 24.492 51.3235 23.4563 50.5272 22.1352C49.731 20.8142 49.3322 19.3334 49.3322 17.695C49.3322 16.0565 49.731 14.5528 50.5272 13.2548C51.3466 11.9337 52.4512 10.8981 53.8414 10.1462C55.2299 9.39437 56.7904 9.01843 58.5211 9.01843C59.8192 9.01843 61.0037 9.24541 62.0747 9.70114C63.1688 10.1338 64.1354 10.7935 64.9794 11.6819L61.6315 15.0298C61.2448 14.5971 60.7891 14.2779 60.2643 14.074C59.7624 13.8683 59.1826 13.7672 58.5211 13.7672C57.7693 13.7672 57.0973 13.9375 56.505 14.2797C55.9357 14.5989 55.48 15.0546 55.1395 15.6469C54.8203 16.2161 54.6608 16.8882 54.6608 17.663C54.6608 18.4381 54.8203 19.1208 55.1395 19.713C55.4818 20.3053 55.9482 20.7717 56.5405 21.1139C57.1326 21.4562 57.7923 21.6264 58.5211 21.6264C59.2038 21.6264 59.8085 21.5128 60.3317 21.2842C60.8778 21.0341 61.3442 20.6918 61.7325 20.2592L65.0467 23.607C64.1814 24.5186 63.2026 25.2118 62.1085 25.6907C61.0144 26.1464 59.7962 26.3734 58.4538 26.3734L58.452 26.3717ZM29.5866 25.2331C28.0278 26.1322 26.4549 26.6198 24.8678 26.6942H24.8696C23.2914 26.7386 21.8267 26.3875 20.4755 25.6427C19.1243 24.8979 18.0338 23.8056 17.2021 22.3658C16.3704 20.9258 15.9661 19.4504 15.9873 17.9397C16.0174 16.3969 16.427 14.9641 17.2144 13.6413C18.0018 12.3184 19.1261 11.2349 20.5854 10.3926C22.004 9.57339 23.4333 9.1549 24.8714 9.14072C26.3094 9.12475 27.6466 9.48296 28.8843 10.2153C30.1434 10.9353 31.1754 11.9957 31.984 13.3965C32.1312 13.6519 32.2712 13.9392 32.4024 14.2584C32.5408 14.5456 32.6808 14.9003 32.8174 15.3205L22.5254 21.2965C22.724 21.4898 22.9333 21.6618 23.1514 21.809C23.8093 22.2186 24.5096 22.4314 25.2562 22.4474C26.0117 22.4331 26.7723 22.2026 27.5419 21.7592C27.964 21.5146 28.3381 21.2432 28.6645 20.9435L31.5176 23.8198C30.952 24.3446 30.3082 24.8163 29.5866 25.2331ZM20.7341 18.187L20.7326 18.1878H20.7344L20.7341 18.187ZM27.0064 14.5421L20.7341 18.187C20.6722 17.9461 20.6315 17.7088 20.612 17.4768C20.5659 16.7143 20.7096 16.0281 21.0394 15.4163C21.3781 14.7744 21.9029 14.2477 22.6123 13.8381C23.2826 13.4497 23.9298 13.2742 24.5539 13.3079C25.187 13.3114 25.7811 13.5207 26.3362 13.9356C26.563 14.1005 26.7866 14.3027 27.0064 14.5421ZM42.9888 26.0629L42.9904 26.0648L40.0522 33H34.6898L34.688 32.9982L38.463 24.855L32.1256 9.39253H37.7629L41.0707 19.4742L44.457 9.39253H50.0941L42.9888 26.0629ZM91.805 26.3379C90.28 26.3379 88.9128 25.9619 87.7053 25.2101C86.5206 24.4582 85.5755 23.4333 84.8698 22.1352C84.187 20.8373 83.8448 19.3565 83.8448 17.695C83.8448 16.0334 84.187 14.5528 84.8698 13.2547C85.5755 11.9567 86.5206 10.9318 87.7053 10.1799C88.9128 9.42803 90.2782 9.0521 91.805 9.0521C92.9205 9.0521 93.9222 9.26843 94.8107 9.70112C95.4082 9.98472 95.9317 10.3415 96.3818 10.7719V9.39611H101.507V25.9974H96.3818V24.6491C95.9456 25.0616 95.4331 25.4077 94.8445 25.687C93.933 26.1198 92.9205 26.3362 91.8032 26.3362L91.805 26.3379ZM92.8637 21.6245C93.979 21.6245 94.8798 21.261 95.5626 20.5322C96.2453 19.7803 96.5875 18.8352 96.5875 17.6968C96.5875 16.9219 96.428 16.2391 96.1088 15.6469C95.8126 15.0546 95.38 14.5989 94.8107 14.2797C94.2645 13.9374 93.6262 13.7672 92.8973 13.7672C92.1685 13.7672 91.5195 13.9374 90.9502 14.2797C90.4042 14.5989 89.959 15.0546 89.6186 15.6469C89.2994 16.2391 89.1398 16.9219 89.1398 17.6968C89.1398 18.4717 89.2994 19.1206 89.6186 19.713C89.9378 20.3053 90.3811 20.7717 90.9502 21.1139C91.5195 21.4562 92.1579 21.6264 92.8637 21.6264V21.6245ZM123.009 25.9957V16.5335C123.009 15.6682 122.736 14.9731 122.19 14.45C121.667 13.9038 120.995 13.6307 120.176 13.6307C119.606 13.6307 119.104 13.7566 118.672 14.0066C118.239 14.2336 117.897 14.5759 117.647 15.0316C117.397 15.4643 117.271 15.9661 117.271 16.5353L117.269 16.5344V25.9939H112.043V9.39261H117.269V10.6982C117.626 10.3796 118.025 10.1051 118.466 9.87493C119.491 9.32877 120.642 9.05568 121.917 9.05568C123.192 9.05568 124.229 9.35182 125.162 9.94408C126.118 10.5133 126.87 11.2758 127.418 12.2334C127.964 13.1892 128.237 14.2372 128.237 15.3756V25.9992H123.011L123.009 25.9957ZM15.0983 9.4193H8.97784V15.5398C12.3585 15.5398 15.0983 12.8 15.0983 9.4193ZM5.25064 1.19475H0V25.9957H5.25064V1.19475ZM8.97602 16.287L17.0886 25.9957H10.2687L5.99514 20.8709L8.97602 16.287Z" fill="black"/>
<rect x="132.237" y="1" width="8" height="8" rx="4" stroke="black" stroke-width="0.888889"/>
<path d="M135.398 4.56711H136.468C136.692 4.56711 136.86 4.51733 136.972 4.41778C137.084 4.31822 137.14 4.15644 137.14 3.93244C137.14 3.71674 137.084 3.56119 136.972 3.46578C136.86 3.36622 136.692 3.31644 136.468 3.31644H135.398V4.56711ZM134.421 2.55733H136.816C137.016 2.55733 137.194 2.59052 137.352 2.65689C137.513 2.71911 137.65 2.80622 137.762 2.91822C137.878 3.03022 137.966 3.16089 138.024 3.31022C138.086 3.45541 138.117 3.61304 138.117 3.78311C138.117 4.04444 138.061 4.27052 137.949 4.46133C137.841 4.65215 137.663 4.79733 137.414 4.89689V4.90933C137.534 4.94252 137.634 4.99437 137.712 5.06489C137.791 5.13126 137.856 5.21215 137.905 5.30756C137.955 5.39881 137.99 5.50044 138.011 5.61244C138.036 5.72444 138.053 5.83644 138.061 5.94844C138.065 6.01896 138.069 6.10193 138.073 6.19733C138.078 6.29274 138.084 6.39022 138.092 6.48978C138.104 6.58933 138.121 6.68474 138.142 6.776C138.167 6.86311 138.202 6.93778 138.248 7H137.271C137.217 6.85896 137.184 6.69096 137.171 6.496C137.159 6.30104 137.14 6.11437 137.115 5.936C137.082 5.7037 137.011 5.53363 136.904 5.42578C136.796 5.31793 136.619 5.264 136.375 5.264H135.398V7H134.421V2.55733Z" fill="black"/>
</svg>
