<svg width="16" height="16" viewBox="0 0 16 16" fill="none" xmlns="http://www.w3.org/2000/svg">
<g clip-path="url(#clip0_47_604)">
<path fill-rule="evenodd" clip-rule="evenodd" d="M0.666656 8.00033C0.666656 3.95024 3.9499 0.666992 7.99999 0.666992C12.0501 0.666992 15.3333 3.95024 15.3333 8.00033C15.3333 12.0504 12.0501 15.3337 7.99999 15.3337C3.9499 15.3337 0.666656 12.0504 0.666656 8.00033ZM11.4714 5.52892C11.7317 5.78927 11.7317 6.21138 11.4714 6.47173L7.47139 10.4717C7.21105 10.7321 6.78893 10.7321 6.52859 10.4717L4.52859 8.47173C4.26824 8.21138 4.26824 7.78927 4.52859 7.52892C4.78893 7.26857 5.21105 7.26857 5.47139 7.52892L6.99999 9.05752L10.5286 5.52892C10.7889 5.26857 11.211 5.26857 11.4714 5.52892Z" fill="#23A861"/>
</g>
<defs>
<clipPath id="clip0_47_604">
<rect width="16" height="16" fill="white"/>
</clipPath>
</defs>
</svg>
