<svg width="24" height="24" viewBox="0 0 24 24" fill="none" xmlns="http://www.w3.org/2000/svg">
<path fill-rule="evenodd" clip-rule="evenodd" d="M12 3C7.02944 3 3 7.02944 3 12C3 16.9706 7.02944 21 12 21C16.9706 21 21 16.9706 21 12C21 7.02944 16.9706 3 12 3ZM1 12C1 5.92487 5.92487 1 12 1C18.0751 1 23 5.92487 23 12C23 18.0751 18.0751 23 12 23C5.92487 23 1 18.0751 1 12Z" fill="#E06F06"/>
<path fill-rule="evenodd" clip-rule="evenodd" d="M12 12C12 9.26586 12 7.87039 12 6.59982C12 6.06302 12 5.79461 12.1421 5.55738C12.2506 5.3762 12.4922 5.18415 12.6932 5.11936C12.9564 5.03452 13.1665 5.08322 13.5868 5.18061C16.6884 5.89944 19 8.67977 19 12C19 15.3202 16.6884 18.1006 13.5868 18.8194C13.1665 18.9168 12.9564 18.9655 12.6932 18.8806C12.4922 18.8159 12.2506 18.6238 12.1421 18.4426C12 18.2054 12 17.937 12 17.4002C12 16.1296 12 14.7341 12 12Z" fill="#E06F06"/>
</svg>
