<svg width="16" height="16" viewBox="0 0 16 16" fill="none" xmlns="http://www.w3.org/2000/svg">
<g clip-path="url(#clip0_47_619)">
<path fill-rule="evenodd" clip-rule="evenodd" d="M0.666656 8.00033C0.666656 3.95024 3.9499 0.666992 7.99999 0.666992C12.0501 0.666992 15.3333 3.95024 15.3333 8.00033C15.3333 12.0504 12.0501 15.3337 7.99999 15.3337C3.9499 15.3337 0.666656 12.0504 0.666656 8.00033ZM5.52859 5.52892C5.78893 5.26857 6.21105 5.26857 6.47139 5.52892L7.99999 7.05752L9.52859 5.52892C9.78893 5.26857 10.211 5.26857 10.4714 5.52892C10.7317 5.78927 10.7317 6.21138 10.4714 6.47173L8.9428 8.00033L10.4714 9.52892C10.7317 9.78927 10.7317 10.2114 10.4714 10.4717C10.211 10.7321 9.78893 10.7321 9.52859 10.4717L7.99999 8.94313L6.47139 10.4717C6.21105 10.7321 5.78893 10.7321 5.52859 10.4717C5.26824 10.2114 5.26824 9.78927 5.52859 9.52892L7.05718 8.00033L5.52859 6.47173C5.26824 6.21138 5.26824 5.78927 5.52859 5.52892Z" fill="#E06F06"/>
</g>
<defs>
<clipPath id="clip0_47_619">
<rect width="16" height="16" fill="white"/>
</clipPath>
</defs>
</svg>
